# xmcd CD database file
#
# Track frame offsets:
#	150
#	15675
#	35487
#	51092
#
# Disc length: 941 seconds
#
# Revision: 0
# Processed by: cddbd v1.5PL3 Copyright (c) Steve Scherf et al.
# Submitted via: CDex 1.50Beta7
#
DISCID=2a03ab04
DTITLE=北原愛子 - Sun rise train
DYEAR=2002
DGENRE=JPop
TTITLE0=Sun rise train
TTITLE1=君の描くその未来
TTITLE2=Sun rise train -instrumental-
TTITLE3=君の描くその未来 -instrumental-
EXTD=YEAR: 2002
EXTT0=
EXTT1=
EXTT2=
EXTT3=
PLAYORDER=
